<svg xmlns="http://www.w3.org/2000/svg" width="1200" height="630" viewBox="0 0 1200 630" font-family="-apple-system, BlinkMacSystemFont, 'Segoe UI', Inter, Roboto, sans-serif">
  <rect width="1200" height="630" fill="#ffffff"/>

  <!-- Pyde mark -->
  <g transform="translate(557,120) scale(3.75)">
    <path d="M16.2136 13.3639C14.9319 13.3639 13.679 13.7459 12.6135 14.4617C11.5478 15.1773 10.7171 16.1945 10.2266 17.3846C9.73616 18.5746 9.60784 19.8843 9.85788 21.1477C10.1079 22.411 10.7251 23.5717 11.6314 24.4825C12.5376 25.3933 13.6924 26.0136 14.9493 26.265C16.2064 26.5162 17.5094 26.3873 18.6935 25.8944C19.8776 25.4014 20.8896 24.5666 21.6017 23.4954C22.3137 22.4245 22.6939 21.1653 22.6939 19.877C22.6939 18.1497 22.0111 16.493 20.7958 15.2715C19.5805 14.0502 17.9322 13.3639 16.2136 13.3639Z" fill="#16161a"/>
    <path d="M11.0714 28.7501C8.75331 26.4059 7.45211 23.2349 7.45211 19.9297C7.45211 16.6246 8.75331 13.4536 11.0714 11.1094C11.9753 10.1975 12.5899 9.03696 12.8379 7.77428C13.0859 6.51149 12.956 5.20334 12.4647 4.01464C11.9736 2.82606 11.1429 1.81034 10.0778 1.09589C9.01273 0.381291 7.7609 0 6.4802 0C5.19963 0 3.9478 0.381291 2.88275 1.09589C1.81758 1.81034 0.986947 2.82606 0.495815 4.01464C0.00455074 5.20334 -0.125315 6.51149 0.122613 7.77428C0.370673 9.03696 0.985249 10.1975 1.88894 11.1094C3.05341 12.269 3.97783 13.6491 4.60867 15.1698C5.23937 16.6904 5.56417 18.3218 5.56417 19.9693C5.56417 21.6168 5.23937 23.2481 4.60867 24.7688C3.97783 26.2894 3.05341 27.6695 1.88894 28.8292C0.985249 29.741 0.370673 30.9016 0.122613 32.1643C-0.125315 33.4271 0.00455074 34.7353 0.495815 35.9239C0.986947 37.1125 1.81758 38.1282 2.88275 38.8427C3.9478 39.5573 5.19963 39.9386 6.4802 39.9386C7.7609 39.9386 9.01273 39.5573 10.0778 38.8427C11.1429 38.1282 11.9736 37.1125 12.4647 35.9239C12.956 34.7353 13.0859 33.4271 12.8379 32.1643C12.5899 30.9016 11.9753 29.741 11.0714 28.8292V28.7501Z" fill="#16161a"/>
  </g>

  <text x="600" y="392" text-anchor="middle" font-size="60" font-weight="800" fill="#16161a">Pyde Token Standard</text>
  <text x="600" y="442" text-anchor="middle" font-size="24" fill="#6b6b73">A token you can't implement wrong.</text>

  <text x="600" y="566" text-anchor="middle" font-size="18" font-weight="600" letter-spacing="3" fill="#9a9aa2">PTS  ·  PYDE.NETWORK</text>
</svg>
